<svg width="56" height="56" viewBox="0 0 56 56" fill="none" xmlns="http://www.w3.org/2000/svg">
<rect width="56" height="56" rx="28" fill="#C238B5"/>
<path d="M37.5794 32.9042C37.3551 32.6653 36.5632 31.9589 35.1074 31.0243C33.6409 30.0816 32.5594 29.4937 32.2491 29.3567C32.2218 29.3445 32.1917 29.3401 32.162 29.3438C32.1323 29.3475 32.1042 29.3592 32.0807 29.3777C31.581 29.7675 30.7397 30.4833 30.6945 30.522C30.4032 30.7716 30.4032 30.7716 30.1647 30.6939C29.7454 30.5564 28.4425 29.8646 27.3073 28.7268C26.1721 27.5889 25.4446 26.2539 25.3071 25.835C25.2285 25.596 25.2285 25.5961 25.479 25.3047C25.5177 25.2596 26.234 24.4183 26.6237 23.919C26.6422 23.8955 26.6539 23.8674 26.6576 23.8377C26.6613 23.808 26.6569 23.7779 26.6447 23.7505C26.5077 23.4399 25.9199 22.3588 24.9771 20.8923C24.0413 19.4369 23.3357 18.645 23.0968 18.4207C23.0749 18.4 23.0478 18.3856 23.0184 18.379C22.9889 18.3725 22.9583 18.3739 22.9297 18.3833C22.0946 18.6703 21.2888 19.0365 20.5234 19.4769C19.7845 19.9064 19.085 20.4003 18.433 20.9528C18.4102 20.9722 18.3932 20.9974 18.3836 21.0257C18.3741 21.054 18.3724 21.0844 18.3788 21.1136C18.4686 21.5321 18.8979 23.2792 20.2299 25.6992C21.589 28.169 22.5309 29.4344 24.5268 31.4235C26.5227 33.4125 27.8281 34.4111 30.3005 35.7702C32.7205 37.1022 34.4685 37.5319 34.8861 37.6209C34.9154 37.6272 34.9458 37.6255 34.9742 37.616C35.0025 37.6065 35.0278 37.5894 35.0473 37.5667C35.5997 36.9147 36.0935 36.2152 36.5228 35.4763C36.9631 34.7108 37.3293 33.9051 37.6164 33.07C37.6256 33.0416 37.627 33.0112 37.6205 32.9821C37.614 32.9529 37.5998 32.926 37.5794 32.9042Z" fill="white"/>
</svg>
