<svg width="56" height="56" viewBox="0 0 56 56" fill="none" xmlns="http://www.w3.org/2000/svg">
<rect x="0.5" y="0.5" width="55" height="55" rx="27.5" fill="white"/>
<rect x="0.5" y="0.5" width="55" height="55" rx="27.5" stroke="#C5C5C5"/>
<g clip-path="url(#clip0_882_390)">
<g clip-path="url(#clip1_882_390)">
<path d="M22.5502 27.1309L27.1672 22.5129V35.5009C27.1672 35.7219 27.255 35.9337 27.4112 36.0899C27.5674 36.2462 27.7793 36.3339 28.0002 36.3339C28.2211 36.3339 28.433 36.2462 28.5892 36.0899C28.7454 35.9337 28.8332 35.7219 28.8332 35.5009V22.5129L33.4502 27.1299C33.6064 27.2863 33.8183 27.3742 34.0394 27.3743C34.2604 27.3743 34.4724 27.2866 34.6287 27.1304C34.7851 26.9742 34.8729 26.7623 34.873 26.5413C34.8731 26.3203 34.7854 26.1083 34.6292 25.9519L28.5892 19.9119C28.433 19.7557 28.2211 19.668 28.0002 19.668C27.7793 19.668 27.5674 19.7557 27.4112 19.9119L21.3702 25.9509C21.2925 26.0281 21.2308 26.1198 21.1888 26.2209C21.1467 26.322 21.125 26.4304 21.125 26.5399C21.125 26.6494 21.1467 26.7578 21.1888 26.8589C21.2308 26.96 21.2925 27.0518 21.3702 27.1289C21.5264 27.2851 21.7383 27.3729 21.9592 27.3729C22.1801 27.3729 22.392 27.2851 22.5482 27.1289L22.5502 27.1309Z" fill="#9C9C9C"/>
</g>
</g>
<defs>
<clipPath id="clip0_882_390">
<rect width="20" height="20" fill="white" transform="translate(18 18)"/>
</clipPath>
<clipPath id="clip1_882_390">
<rect width="20" height="20" fill="white" transform="translate(18 18)"/>
</clipPath>
</defs>
</svg>
